<svg width="58" height="84" viewBox="0 0 58 84" fill="none" xmlns="http://www.w3.org/2000/svg">
<path fill-rule="evenodd" clip-rule="evenodd" d="M1.00251 0.395431C-0.0790034 1.93957 0.664936 2.21519 6.08252 2.27737L10.691 2.33022V8.90608V15.4822H6.17705C1.24715 15.4822 0.725527 15.5901 0.725527 16.6122C0.725527 17.6714 1.05353 17.7955 3.8498 17.7955H6.4201V40.5795C6.4201 65.5359 6.35723 64.0382 7.45264 65.1924C8.38609 66.1757 9.15395 66.4251 11.5363 66.5183L13.7162 66.6032V70.112C13.7162 74.6549 14.2558 75.631 16.7678 75.631H17.8092L17.8117 79.2347C17.8147 83.3706 17.8933 83.697 18.9033 83.7819C20.0855 83.8813 20.1226 83.7494 20.1226 79.4443V75.631H21.2531C23.8293 75.631 24.2894 74.8287 24.3589 70.2145L24.4136 66.6026L26.5834 66.5178C29.0521 66.4212 29.8505 66.1383 30.7576 65.0379C31.7204 63.8699 31.6896 64.6783 31.6896 40.4196V17.7955H34.2599C37.3792 17.7955 38.23 17.2015 36.9476 15.9188L36.5107 15.4822H31.9648H27.4187V8.89788V2.31336L31.8231 2.31086C36.5817 2.3079 36.9778 2.24093 37.2774 1.38925C37.4024 1.03368 37.3692 0.804301 37.1428 0.458755L36.8421 0H19.0609H1.27949L1.00251 0.395431ZM25.1054 17.3507V32.388H19.055H13.0044V30.7862V29.1847L15.4512 29.1819C18.658 29.1785 19.6623 28.6255 18.8133 27.3298L18.5129 26.8713H15.7585H13.0044V25.1807V23.4901H14.428C16.0255 23.4901 16.5635 23.191 16.5635 22.3029C16.5635 21.4075 16.1387 21.1767 14.4895 21.1767H13.0044V19.4861V17.7955H16.7286C20.8757 17.7955 21.0123 17.7584 21.0123 16.6361C21.0123 15.5619 20.7082 15.4822 16.6129 15.4822H13.0044V8.89788V2.31336H19.055H25.1054V17.3507ZM10.691 39.0668C10.691 62.4854 10.6298 61.215 11.7926 61.9239C12.5707 62.3984 25.2612 62.489 26.1554 62.0266C27.424 61.3706 27.3244 63.2234 27.377 39.2837L27.4244 17.7955H28.4002H29.3763V40.393V62.9906L28.8569 63.5717L28.3378 64.153H19.1855C9.34324 64.153 9.34938 64.1534 8.93117 63.2352C8.78949 62.9246 8.73346 56.4138 8.73346 40.2984V17.7955H9.71224H10.691V39.0668ZM25.1054 35.3797C25.1054 38.8352 21.9938 44.1063 18.8627 45.9545C17.8042 46.5795 17.1248 46.8372 14.5171 47.6025C13.9299 47.7747 13.3493 47.954 13.2269 48.0009C13.0513 48.0681 13.0044 46.6743 13.0044 41.3936V34.7013H19.055H25.1054V35.3797ZM25.1054 51.429V59.9709H19.055H13.0044V55.3683V50.766L14.0276 50.3149C14.5904 50.0667 15.8054 49.6501 16.7275 49.3888C20.0096 48.459 22.8132 46.4158 24.4887 43.7329C24.7789 43.268 25.0363 42.8876 25.0609 42.8876C25.0853 42.8874 25.1054 46.731 25.1054 51.429ZM37.3815 51.2252C36.2551 51.8245 35.9669 52.6183 35.9635 55.1305C35.9597 58.0115 36.5528 59.0935 38.2878 59.3709C39.5204 59.5679 39.2208 61.1355 37.7389 62.2426C34.3012 64.8111 34.0032 65.7657 34.0032 74.2078C34.0032 80.7495 34.0896 81.3631 35.1811 82.5715C36.5032 84.0348 36.2009 83.9949 45.988 83.9949C58.6049 83.9949 57.9382 84.5509 57.9382 74.0294C57.9382 65.5274 57.6505 64.4942 54.7465 62.5667C53.1169 61.4852 52.3131 59.4372 53.5181 59.4372C55.308 59.4372 56.0697 58.1224 56.0697 55.0321C56.0697 52.419 55.8424 51.8097 54.6424 51.2069C53.6664 50.7165 38.3067 50.7327 37.3815 51.2252ZM53.6673 55.1663V57.0348L52.4516 57.1236C50.8633 57.24 50.7309 57.4181 50.7309 59.4395C50.7309 62.0123 51.3562 63.1501 53.6627 64.7757C54.2957 65.222 54.6994 65.6978 55.0854 66.4531L55.6246 67.5078L55.6777 73.7044C55.7538 82.584 56.8537 81.6816 45.9568 81.6816H37.7676L37.2232 81.2235C36.9239 80.9716 36.5911 80.4711 36.4838 80.1112C36.1991 79.1566 36.3387 67.7191 36.6437 67.0003C37.0505 66.0418 37.7377 65.1935 38.5919 64.5951C40.5345 63.2346 41.2943 62.048 41.2975 60.3713L41.2993 59.4372H44.2355C47.4613 59.4372 47.8836 59.3033 47.8836 58.2803C47.8836 57.191 47.5959 57.1236 42.9364 57.1236C39.8796 57.1236 38.6418 57.0642 38.4876 56.9102C38.2591 56.6817 38.1776 53.5424 38.3947 53.3253C38.4609 53.259 41.9244 53.2258 46.0912 53.2513L53.6673 53.2975V55.1663ZM22.0802 69.7485C22.0802 73.7107 22.2503 73.4955 19.1158 73.4955C17.9206 73.4955 16.7371 73.4174 16.4861 73.3219L16.0296 73.1484V69.8519V66.5554H19.055H22.0802V69.7485ZM40.0035 68.8289C39.0006 69.4503 38.768 70.3373 38.8361 73.2823C38.9359 77.6013 38.7427 77.4835 45.8288 77.5489C53.2131 77.6172 53.2224 77.6115 53.2224 73.1076C53.2224 68.3909 53.4137 68.5127 46.0151 68.5182C41.1082 68.5219 40.4438 68.5563 40.0035 68.8289ZM50.8699 73.0062L50.82 75.1861H46.0151H41.2103L41.1604 73.0062L41.1103 70.8263H46.0151H50.9198L50.8699 73.0062Z" fill="#64842C"/>
</svg>
