<svg width="67" height="81" viewBox="0 0 67 81" fill="none" xmlns="http://www.w3.org/2000/svg">
<path fill-rule="evenodd" clip-rule="evenodd" d="M5.48689 0.34398C3.02189 1.13211 1.11038 3.04541 0.359861 5.47601C-0.0810094 6.90304 -0.136018 72.493 0.302053 74.2575C0.879146 76.5816 2.18616 78.1439 4.52233 79.3015L5.88555 79.977L35.4333 80.0204C66.5397 80.066 65.5764 80.0804 65.8518 79.5655C66.4649 78.4201 65.8222 77.5064 64.2911 77.3464C58.0583 76.6949 58.1546 67.7942 64.4016 67.1413C65.1329 67.0649 65.4421 66.9515 65.7164 66.6596L66.075 66.2778L66.1208 34.1368C66.1683 0.811257 66.1684 0.83906 65.6732 0.34358C65.2147 -0.114893 6.92072 -0.114293 5.48689 0.34398ZM63.3404 33.5633V64.4277H36.3046H9.2691V33.5633V2.69896H36.3046H63.3404V33.5633ZM6.45624 33.7978C6.45624 60.7081 6.42744 64.5839 6.22761 64.5839C5.78553 64.5839 4.25549 65.2388 3.48316 65.7585L2.70244 66.284L2.74305 36.484L2.78365 6.684L3.18852 5.82446C3.83582 4.45004 5.39907 3.01941 6.26081 3.01301C6.41644 3.01181 6.45624 9.27222 6.45624 33.7978ZM58.4316 67.436C56.4661 70.1102 56.3463 73.753 58.1314 76.5798L58.6504 77.4022L32.6705 77.3612L6.69048 77.3204L5.82394 76.9139C1.35382 74.8172 1.95592 68.3785 6.72729 67.2543C7.05554 67.1769 18.6662 67.1089 33.0029 67.1001L58.6902 67.0843L58.4316 67.436Z" fill="#64842C"/>
<path d="M56.2262 27.247C56.2262 26.8049 56.0505 26.381 55.7379 26.0683C55.4253 25.7557 55.0013 25.5801 54.5592 25.5801H42.8907V13.9116C42.8907 13.4695 42.7151 13.0455 42.4025 12.7329C42.0898 12.4203 41.6658 12.2446 41.2237 12.2446H31.2221C30.78 12.2446 30.356 12.4203 30.0434 12.7329C29.7308 13.0455 29.5552 13.4695 29.5552 13.9116V25.5801H17.8867C17.4446 25.5801 17.0206 25.7557 16.708 26.0683C16.3953 26.381 16.2197 26.8049 16.2197 27.247V37.2487C16.2197 37.6908 16.3953 38.1147 16.708 38.4274C17.0206 38.74 17.4446 38.9156 17.8867 38.9156H29.5552V50.5841C29.5552 51.0262 29.7308 51.4502 30.0434 51.7628C30.356 52.0754 30.78 52.2511 31.2221 52.2511H41.2237C41.6658 52.2511 42.0898 52.0754 42.4025 51.7628C42.7151 51.4502 42.8907 51.0262 42.8907 50.5841V38.9156H54.5592C55.0013 38.9156 55.4253 38.74 55.7379 38.4274C56.0505 38.1147 56.2262 37.6908 56.2262 37.2487V27.247Z" stroke="#64842C" stroke-width="3" stroke-linecap="round" stroke-linejoin="round"/>
</svg>
