<svg width="91" height="82" viewBox="0 0 91 82" fill="none" xmlns="http://www.w3.org/2000/svg">
<path fill-rule="evenodd" clip-rule="evenodd" d="M65.2776 0.573888C65.0816 0.854329 64.9748 1.43866 64.9748 2.23059V3.4544H63.7537C62.1825 3.4544 61.6678 3.78474 61.6678 4.79248C61.6678 5.98435 62.0019 6.25382 63.5918 6.34389L64.9748 6.42223V7.66725C64.9748 9.15429 65.3585 9.69197 66.4198 9.69197C67.4123 9.69197 67.8929 8.98413 67.8929 7.52154V6.37832H69.0689C70.4447 6.37832 71.1999 5.84064 71.1999 4.86159C71.1999 3.91872 70.5057 3.4544 69.0961 3.4544H67.8929V2.31118C67.8929 0.374785 66.2019 -0.748477 65.2776 0.573888ZM38.7558 6.68172C38.3295 6.98087 38.3236 7.05023 38.3236 11.6523V16.3193H33.7735C29.5845 16.3193 29.1871 16.3489 28.7643 16.6918L28.3049 17.064L28.2458 22.978C28.1584 31.7293 27.6116 30.9386 33.7518 30.9386H38.3236V35.5192C38.3236 41.546 37.4289 40.8798 45.5213 40.8798C53.6137 40.8798 52.719 41.546 52.719 35.5192V30.9386H57.2908C63.4317 30.9386 62.8874 31.7258 62.798 22.978L62.7377 17.064L62.2783 16.6918C61.8555 16.3489 61.4581 16.3193 57.2691 16.3193H52.719V11.6523C52.719 5.71564 53.6232 6.37832 45.5213 6.37832C40.1042 6.37832 39.1256 6.42198 38.7558 6.68172ZM49.9957 13.8829C49.9957 19.8298 49.4103 19.2432 55.3453 19.2432H59.917V23.6289V28.0147H55.3886C49.3873 28.0147 49.9957 27.4199 49.9957 33.2887V37.9559H45.5213H41.0469V33.2887C41.0469 27.4199 41.6553 28.0147 35.654 28.0147H31.1258V23.6289V19.2432H35.6973C40.0096 19.2432 40.291 19.221 40.658 18.8535C41.025 18.4857 41.0469 18.2035 41.0469 13.8829V9.30199H45.5213H49.9957V13.8829ZM17.1193 14.3701C16.8101 14.68 16.7301 15.0198 16.7301 16.0268V17.2941H15.5501C14.1335 17.2941 13.7251 17.4842 13.451 18.2716C13.0025 19.5608 13.7114 20.2177 15.5501 20.2177H16.7301V21.5521C16.7301 23.1122 17.0292 23.5316 18.1417 23.5316C19.1704 23.5316 19.6482 22.8433 19.6482 21.361V20.2177H20.8985C22.0175 20.2177 22.1913 20.1638 22.5521 19.7043C23.5257 18.4637 22.6871 17.2941 20.8243 17.2941H19.6482V16.1154C19.6482 14.2666 18.2117 13.2753 17.1193 14.3701ZM61.5965 38.7498C61.1396 39.1098 61.0841 39.287 61.0841 40.3838V41.6141L59.8306 41.6939C56.8884 41.8818 56.847 44.5834 59.7863 44.5834H61.0841V45.9175C61.0841 48.8831 63.802 48.9111 63.9691 45.9472L64.046 44.5834H65.2885C68.1486 44.5834 68.1523 41.8788 65.2925 41.6964L64.0022 41.6141V40.4584C64.0022 38.6148 62.8269 37.7802 61.5965 38.7498ZM82.7194 45.3766C82.368 45.4844 76.5027 48.5597 69.6855 52.2107L57.2908 58.8487L47.0776 53.7589C33.1102 46.7978 34.6627 47.0228 22.1427 50.1453C17.6143 51.2746 13.7563 52.2454 13.569 52.3025C13.2655 52.3954 13.2286 52.2454 13.2286 50.9225C13.2284 49.6069 13.1743 49.3844 12.751 48.9602L12.2734 48.4819H6.64942C1.25424 48.4819 1.00449 48.4981 0.512701 48.8859L0 49.2898L0.000248868 63.505C0.000248868 77.4604 0.00722106 77.7276 0.389194 78.1101C0.760958 78.4826 1.0376 78.5001 6.60012 78.5001H12.4221L12.8252 77.9866C13.1644 77.5547 13.2286 77.1979 13.2286 75.7448C13.2286 74.5302 13.2978 74.0168 13.4622 74.0168C13.6863 74.0168 19.4961 75.1535 43.3814 79.8703C55.8077 82.3242 56.5729 82.3998 58.7674 81.3898C59.7711 80.9277 86.2395 59.111 88.9671 56.4972C93.8728 51.797 89.1556 43.4013 82.7194 45.3766ZM86.5329 48.7277C88.0217 49.7147 88.5633 51.9183 87.6835 53.4091C87.1629 54.2916 58.6909 78.1483 57.4852 78.7122C56.1892 79.3187 55.0447 79.1712 43.7902 76.9497C37.8412 75.7753 28.6843 73.9726 23.4416 72.9439C18.1988 71.9149 13.7563 71.028 13.569 70.9726C13.252 70.8788 13.2286 70.3349 13.2286 63.1325V55.3934L22.0312 53.2012C31.6301 50.8108 32.6263 50.6673 35.1094 51.3153C36.7947 51.7551 59.0248 63.0065 59.6282 63.725C61.6942 66.1854 59.2355 70.0205 56.2016 69.0694C55.7307 68.9217 50.6182 66.6275 44.8405 63.9713C38.1528 60.8964 34.1047 59.1384 33.7006 59.1332C32.4881 59.117 31.8928 60.4857 32.7127 61.4032C33.3502 62.1167 54.6197 71.8229 56.053 72.0544C62.1013 73.0315 65.8 65.6587 61.4247 61.3465L60.5345 60.469L70.1845 55.3038C85.2112 47.2606 83.5951 48.0548 84.757 48.1428C85.4216 48.1932 86.0284 48.3931 86.5329 48.7277ZM10.3105 63.491V75.5762H6.61431H2.91809V63.491V51.4056H6.61431H10.3105V63.491Z" fill="#64842C"/>
</svg>
