<svg width="83" height="81" viewBox="0 0 83 81" fill="none" xmlns="http://www.w3.org/2000/svg">
<path fill-rule="evenodd" clip-rule="evenodd" d="M43.2609 0.0855296C39.6547 0.68577 38.1773 5.38826 40.8804 7.66274L41.3437 8.05265L41.0762 8.88905C40.7558 9.89089 40.6742 9.92922 38.559 10.0723C37.6781 10.1318 36.477 10.2738 35.8897 10.388L34.822 10.5957L33.5469 8.73878L32.2718 6.8819L32.7427 6.20232C34.4891 3.68144 32.7267 0.318205 29.6702 0.338705C28.5769 0.346085 24.4345 1.79871 22.8226 2.74007C19.7515 4.53382 21.1576 9.5512 24.7445 9.59794C25.2506 9.6045 25.6659 9.64591 25.6676 9.68998C25.6692 9.73406 25.8127 10.6709 25.9868 11.7722C26.1606 12.8732 26.3037 13.822 26.3049 13.8804C26.3059 13.9388 25.9289 14.2193 25.4671 14.5036C24.2445 15.2557 22.3923 16.6973 21.0604 17.933L19.8978 19.0117L18.6201 18.4749L17.3423 17.9382L17.3403 17.2088C17.3327 14.5149 14.288 12.8546 11.8541 14.2168C11.1905 14.5883 8.70505 17.7194 8.29525 18.7001C7.06915 21.6345 9.91475 24.5396 12.9783 23.4814L13.8233 23.1894L14.6404 24.1329L15.4575 25.0761L14.7712 26.5521C13.622 29.0231 12.7153 31.8423 12.3053 34.2195L12.2042 34.8054L10.407 35.2199C7.47976 35.8947 7.70588 35.899 7.25611 35.1596C5.67864 32.5659 1.66884 32.9364 0.37467 35.7955C-0.12758 36.905 -0.12389 42.8149 0.379795 43.8862C1.77421 46.853 6.25591 46.7282 7.60215 43.6849C7.95741 42.8817 7.793 42.8953 10.1911 43.4719C12.2848 43.9752 12.2919 43.9803 12.4438 45.1257C12.6464 46.6527 13.9883 47.3442 14.8157 46.3477C15.1591 45.934 15.1652 45.5262 14.852 43.8895C14.4389 41.7303 14.5898 41.8317 10.3114 40.8395C5.81803 39.7973 5.4925 39.8557 5.35699 41.7294C5.24424 43.2862 3.94331 44.0363 2.99703 43.0898C2.40868 42.5017 2.38203 37.1864 2.96423 36.5249C3.791 35.5854 5.18889 36.0643 5.42095 37.3666C5.68889 38.8707 5.96912 38.9058 10.1044 37.9513C14.6951 36.8918 14.4018 37.1089 14.9225 34.387C15.3889 31.9495 16.035 30.045 17.2853 27.4231C18.5658 24.7376 18.5655 24.7321 16.9811 22.8422C14.1993 19.524 13.9055 19.3728 12.5951 20.5806C11.7864 21.326 11.5408 21.3643 11.0047 20.8283C10.3477 20.1712 10.4795 19.8256 12.2571 17.5466C13.8448 15.511 14.9838 15.9909 14.5305 18.5042C14.3762 19.36 14.738 19.6513 17.3382 20.7657C20.4973 22.1198 20.4481 22.1245 22.4089 20.2688C24.0839 18.6835 26.0536 17.1444 27.3592 16.4007C29.1187 15.3984 29.1333 15.3265 28.4744 10.9604C27.7836 6.3819 27.6243 6.16604 25.4933 6.92289C24.5085 7.27262 23.8576 6.91715 23.7769 5.98543C23.7063 5.17158 24.1243 4.88601 27.0064 3.77922C29.89 2.67201 29.8018 2.68882 30.3694 3.13531C31.1774 3.77081 30.9035 4.63038 29.6442 5.41081C28.6087 6.05267 28.7292 6.40076 31.237 10.0104C33.6868 13.5366 33.6441 13.511 36.1566 12.9739C36.7732 12.8421 38.3587 12.6477 39.6799 12.5419C42.6516 12.3041 42.6225 12.3259 43.5741 9.63955C44.4913 7.05041 44.4431 6.74926 42.9866 5.97005C41.5791 5.21709 41.9298 3.10907 43.5358 2.66853C46.7549 1.78559 49.0298 4.95899 46.2524 6.45836C45.2434 7.00305 45.2114 7.15147 45.5253 9.84599C45.8785 12.8769 45.7032 12.6811 48.8889 13.6067C50.0669 13.9491 51.7719 14.6141 53.031 15.2225C56.098 16.7043 55.671 16.8246 60.0198 13.2556C62.6651 11.0846 62.7931 10.6871 61.2951 9.29208C60.0684 8.14982 60.8224 6.4108 62.2252 7.14696C63.1483 7.63137 66.843 10.7412 66.9361 11.1123C67.1995 12.1617 66.0698 12.8697 65.0593 12.2884C63.626 11.4632 63.2287 11.83 61.5399 15.5358C59.6855 19.6052 59.658 19.8393 60.9044 20.9652C62.258 22.1884 64.0661 20.9406 63.0475 19.4863C62.8045 19.1395 62.8373 19.0216 63.7199 17.0749L64.6477 15.0284L65.4181 15.1024C68.3682 15.3857 70.4183 12.4446 69.1577 9.73693C68.2118 7.70558 63.0112 4.22571 61.2763 4.46351C58.4719 4.84788 56.9352 8.49791 58.7386 10.4907C58.9409 10.7144 58.7734 10.8983 57.2511 12.1231L55.5354 13.5034L54.0941 12.806C52.6827 12.1231 49.013 10.8111 48.5148 10.8111C48.2682 10.8111 48.194 10.5635 48.0384 9.21972C47.982 8.73202 48.0689 8.57724 48.8043 7.85851C51.7341 4.99364 49.8963 0.570765 45.6059 0.16179C44.9892 0.102955 44.3767 0.0338695 44.2445 0.00844952C44.1122 -0.0171755 43.6696 0.0174696 43.2609 0.0855296ZM42.5717 18.3287C41.6075 19.3941 42.4597 20.5007 44.2445 20.5007C46.0509 20.5007 46.9013 19.416 45.9333 18.3465C45.5023 17.8703 42.9985 17.8572 42.5717 18.3287ZM30.8092 20.3533C22.0419 22.7112 20.011 34.6309 27.9537 37.1114C30.9933 38.0606 36.0764 36.9488 36.0764 35.3349C36.0764 33.9925 35.2011 33.6654 33.4701 34.3605C26.8849 37.0054 22.6742 30.1648 27.7582 25.081C33.042 19.7969 40.8253 23.8438 37.7798 30.2919C36.9594 32.0286 37.2035 32.9128 38.5036 32.9128C39.478 32.9128 40.2767 31.7322 40.7978 29.5213C42.2238 23.4723 37.009 18.686 30.8092 20.3533ZM72.2708 20.8904C70.646 21.3846 69.2288 23.0728 69.2288 24.5137C69.2288 24.9133 69.0874 24.9813 67.9295 25.1382L67.1907 25.2382L66.548 24.2132C65.6897 22.8442 64.7043 22.6427 64.0145 23.6954C63.669 24.2228 63.7767 24.6246 64.6799 26.1794C65.5835 27.7343 65.8121 27.8645 67.4216 27.7384C71.4713 27.4211 71.8908 27.2124 71.8284 25.5459C71.7618 23.7643 72.8487 22.8479 74.2001 23.5468C74.9399 23.9295 76.2603 27.0293 76.0463 27.8817C75.671 29.3767 73.992 29.6617 72.9125 28.4135C72.147 27.5285 71.7602 27.6039 69.5747 29.0649C66.8328 30.8976 66.891 30.7449 67.6212 34.194C67.8643 35.3412 68.0111 36.7527 68.0837 38.6356C68.2151 42.0519 67.9562 41.7354 72.1101 43.5562C76.368 45.4225 76.6408 45.3987 77.1463 43.1185C77.4729 41.6448 79.4788 41.7708 79.4788 43.2653C79.4788 44.3672 78.4899 48.6857 78.1545 49.0483C77.3136 49.9581 76.0043 49.0975 76.2187 47.7761C76.4477 46.3651 75.9614 46.2286 71.3924 46.4198C67.0302 46.6025 67.2938 46.4553 66.1825 49.3288C65.9099 50.0334 65.3666 51.2039 64.9755 51.9298C63.879 53.9638 63.9197 54.2094 65.7129 56.382C67.9521 59.0946 68.2799 59.275 69.4843 58.4576C71.5019 57.0884 73.0135 59.2789 71.4658 61.3287C69.885 63.4223 67.7168 62.8129 68.023 60.3609C68.168 59.2006 67.9509 59.0128 65.0112 57.7565C62.0485 56.4907 62.1246 56.4814 60.1947 58.3422C58.5889 59.8906 57.4067 60.8348 55.6623 61.9623C53.7364 63.2073 53.7517 63.1226 54.5713 67.9869C55.2454 71.9883 55.5172 72.3443 57.3218 71.5904C58.7267 71.0034 59.8667 72.0701 59.0623 73.2187C58.8325 73.5469 53.8278 75.6744 53.2856 75.6744C52.8639 75.6744 52.2522 74.9273 52.2524 74.4126C52.2524 73.9446 52.3266 73.8603 53.5254 72.9655C54.3301 72.3652 54.1306 71.8589 51.8032 68.5916C49.228 64.9764 49.3973 65.0814 46.915 65.5615C43.1313 66.2934 40.503 66.3604 37.0449 65.813C34.5654 65.4207 34.7661 65.2716 32.0718 69.5096C29.7889 73.1006 29.6534 73.7269 31.0339 74.3037C32.4174 74.8818 32.6367 77.9166 31.295 77.9166C30.4804 77.9166 25.9595 76.1885 25.4443 75.6803C24.2063 74.4587 25.5483 72.4175 27.2534 72.9286C28.8701 73.4128 29.0548 73.0374 29.5937 68.1765C30.0943 63.6589 30.1534 63.8666 28.0181 62.6339C26.1499 61.5552 24.3265 60.1737 22.4236 58.3951C20.4807 56.579 20.7312 56.5868 16.7238 58.2178C13.0584 59.7096 13.1144 59.6614 13.2554 61.2145C13.4112 62.9277 12.3696 63.7751 11.2198 62.8707C10.5541 62.3471 9.17019 60.1005 9.17019 59.5435C9.17019 58.4097 10.5421 57.8869 11.4469 58.6762C12.7823 59.841 13.0059 59.6852 17.4594 54.4882C18.6717 53.0735 16.787 48.7499 15.1382 49.1638C14.0346 49.4407 13.9057 50.2148 14.6833 51.8972L15.2312 53.0836L13.87 54.6094C13.1216 55.4487 12.4965 56.1342 12.4811 56.1329C12.466 56.1317 12.1652 56.0268 11.8128 55.8997C9.08204 54.9159 6.48264 56.9152 6.6327 59.884C6.72967 61.8037 9.09394 65.063 10.7491 65.5588C13.3175 66.3284 15.8304 64.6603 15.9422 62.1116L15.9768 61.3248L17.9717 60.5111L19.9667 59.6977L21.2685 60.8891C22.8582 62.344 24.5563 63.6179 26.0972 64.5115C27.4273 65.2829 27.3584 65.0377 27.0277 67.8268C26.8972 68.9278 26.7895 69.9124 26.7889 70.0149C26.7881 70.1172 26.4812 70.2505 26.1067 70.311C21.9925 70.9764 20.9599 76.463 24.595 78.3426C27.7057 79.9513 31.5919 80.8125 32.8481 80.1717C34.9002 79.1247 35.4338 75.1176 33.7786 73.1838L33.2351 72.5489L34.6004 70.4116L35.9657 68.2743L36.5662 68.3702C39.6816 68.8684 43.7031 68.8064 46.8363 68.212C47.5489 68.0769 48.1823 68.025 48.2442 68.0967C48.3061 68.1685 48.9142 69.0096 49.5956 69.9659L50.8344 71.7047L50.5101 72.0502C48.4078 74.2879 50.2253 78.1536 53.3733 78.1407C54.6554 78.1354 59.5625 76.2482 60.6346 75.3478C63.1705 73.2189 61.7457 69.0908 58.3747 68.7999L57.3056 68.7076L56.9553 66.6257C56.6673 64.9149 56.6424 64.515 56.8165 64.3834C56.9327 64.2952 57.6781 63.7678 58.4725 63.211C59.2669 62.6542 60.5333 61.622 61.2867 60.917C62.8093 59.4925 62.6207 59.5296 64.3496 60.3135C65.2666 60.7295 65.3851 60.8346 65.3851 61.2333C65.3851 65.1933 70.6089 66.533 73.2862 63.2596C76.4627 59.3758 73.6574 54.135 69.2282 55.6791C68.6554 55.8787 68.6524 55.8763 67.3726 54.267L66.9693 53.7603L67.6409 52.4253C68.0101 51.6912 68.4744 50.658 68.6729 50.1295L69.0335 49.1685L70.2122 49.0695C73.1197 48.8247 73.6763 48.8761 73.7913 49.3995C74.457 52.4304 79.2115 52.8472 80.7 50.0051C81.0475 49.3417 82.0413 44.2167 82.0413 43.0884C82.0413 39.4484 77.1254 38.0788 75.1636 41.1722L74.7304 41.8555L72.722 40.9757L70.7137 40.0958L70.6241 37.8256C70.5466 35.8568 70.385 34.5905 69.9451 32.504C69.8494 32.0502 69.9035 31.9745 70.7048 31.4425L71.5675 30.8698L72.2548 31.2757C74.4877 32.5942 77.6959 31.3568 78.4272 28.895C78.8651 27.4202 78.7884 26.9662 77.5522 23.7132C76.7218 21.5275 74.3477 20.2588 72.2708 20.8904ZM51.5792 21.1878C46.0755 23.1872 47.8898 30.2765 53.8358 30.0065C59.3733 29.755 60.6359 23.1433 55.5127 21.2266C54.4211 20.8182 52.645 20.8008 51.5792 21.1878ZM54.911 23.7917C57.8167 25.1982 55.0937 28.4959 52.1355 27.1529C51.4348 26.8348 50.812 26.0408 50.812 25.4654C50.812 23.9621 53.2265 22.9762 54.911 23.7917ZM47.0398 35.8683C46.0437 36.8644 46.8137 38.0378 48.4636 38.0378C49.8073 38.0378 50.243 37.7239 50.243 36.7565C50.243 35.4792 48.0398 34.8683 47.0398 35.8683ZM21.7642 39.3305C20.651 40.2061 21.4649 41.5611 23.1038 41.5611C24.3213 41.5611 24.8656 41.1655 24.8656 40.2799C24.8656 39.3943 24.3213 38.9986 23.1038 38.9986C22.4179 38.9986 22.0795 39.0825 21.7642 39.3305ZM54.8731 39.6536C52.3454 40.3861 51.0041 43.4324 52.1648 45.8046C54.2163 49.9977 60.4122 48.549 60.4188 43.8748C60.4229 40.9252 57.6824 38.8393 54.8731 39.6536ZM37.0787 40.9396C33.0111 42.5031 32.3569 48.2823 35.968 50.7542C40.5551 53.8941 46.3461 49.2695 44.3863 44.0314C43.3589 41.2852 39.9413 39.8393 37.0787 40.9396ZM56.8009 42.2649C57.511 42.5617 57.8577 43.0925 57.8577 43.8834C57.8577 45.7394 55.4194 46.3979 54.5773 44.7696C53.7681 43.2046 55.1974 41.595 56.8009 42.2649ZM40.4487 43.4223C42.4341 44.4276 42.7896 46.9617 41.1473 48.4036C38.3886 50.8257 34.4633 46.9776 36.8823 44.2224C37.782 43.1976 39.3226 42.852 40.4487 43.4223ZM25.0257 47.5057C20.8328 48.1494 19.9171 53.9034 23.7113 55.7666C27.5786 57.6657 31.5615 53.6194 29.612 49.772C28.7584 48.0875 26.9753 47.2064 25.0257 47.5057ZM26.8342 50.3722C28.0136 51.2999 27.6268 53.1483 26.1612 53.5875C25.013 53.9314 23.9046 53.0194 23.9046 51.7304C23.9046 50.3784 25.7528 49.5215 26.8342 50.3722ZM52.1937 52.9438C50.9599 53.9146 51.8996 55.1744 53.8577 55.1744C55.4305 55.1744 55.8485 54.9054 55.8485 53.8931C55.8485 52.6375 53.3938 51.9999 52.1937 52.9438ZM43.7639 54.8427C41.7234 55.2625 40.3585 56.9796 40.3708 59.1114C40.3972 63.697 46.66 64.9736 48.556 60.7799C49.9539 57.6885 47.1026 54.1559 43.7639 54.8427ZM33.4106 56.5665C32.5611 56.7326 32.1919 58.0333 32.8026 58.7082C33.2175 59.1667 35.2946 59.1594 35.7562 58.6979C36.9426 57.5114 35.4612 56.1653 33.4106 56.5665ZM45.4993 57.6258C46.9429 58.3203 46.2764 60.7799 44.6448 60.7799C43.784 60.7799 42.9632 59.9384 42.9632 59.0558C42.9632 57.6891 44.1918 56.9964 45.4993 57.6258Z" fill="#64842C"/>
</svg>
